<svg width="24" height="24" viewBox="0 0 24 24" fill="none" xmlns="http://www.w3.org/2000/svg">
<mask id="mask0_405_35353" style="mask-type:alpha" maskUnits="userSpaceOnUse" x="0" y="0" width="24" height="24">
<rect width="24" height="24" fill="#D9D9D9"/>
</mask>
<g mask="url(#mask0_405_35353)">
<path d="M11.9984 15.2441L15.2426 11.9999L11.9984 8.75568L11.0792 9.67488L12.7542 11.3499H8.64844V12.6499H12.7542L11.0792 14.3249L11.9984 15.2441ZM12.0001 21.0999C10.7528 21.0999 9.57612 20.863 8.46999 20.3894C7.36384 19.9157 6.39565 19.2639 5.56544 18.4341C4.7352 17.6043 4.08315 16.6365 3.60926 15.5309C3.13538 14.4253 2.89844 13.2488 2.89844 12.0016C2.89844 10.7376 3.13527 9.55675 3.60894 8.45895C4.0826 7.36114 4.73435 6.39712 5.56419 5.5669C6.39404 4.73667 7.36178 4.08461 8.46741 3.61073C9.57303 3.13685 10.7495 2.8999 11.9967 2.8999C13.2607 2.8999 14.4415 3.13674 15.5393 3.6104C16.6372 4.08407 17.6012 4.73582 18.4314 5.56565C19.2616 6.3955 19.9137 7.35908 20.3876 8.45638C20.8614 9.55366 21.0984 10.7343 21.0984 11.9982C21.0984 13.2455 20.8616 14.4222 20.3879 15.5283C19.9142 16.6345 19.2625 17.6026 18.4326 18.4329C17.6028 19.2631 16.6392 19.9151 15.5419 20.389C14.4446 20.8629 13.264 21.0999 12.0001 21.0999ZM11.9984 19.7999C14.1651 19.7999 16.0067 19.0415 17.5234 17.5249C19.0401 16.0082 19.7984 14.1665 19.7984 11.9999C19.7984 9.83321 19.0401 7.99155 17.5234 6.47488C16.0067 4.95821 14.1651 4.19988 11.9984 4.19988C9.83175 4.19988 7.99008 4.95821 6.47341 6.47488C4.95675 7.99155 4.19841 9.83321 4.19841 11.9999C4.19841 14.1665 4.95675 16.0082 6.47341 17.5249C7.99008 19.0415 9.83175 19.7999 11.9984 19.7999Z" fill="#1F2937"/>
</g>
</svg>
